PathFileType	4	(X/Y/Z)	E:\Qualisys_Data\Carbon_Farble_Plate\Data\Amateur_Runner\S14\T2\S14T2V26_c3d.trc
DataRate	CameraRate	NumFrames	NumMarkers	Units	OrigDataRate	OrigDataStartFrame	OrigNumFrames
200.000000	200.000000	4	39	mm	200.000000	74	296
Frame#	Time	LSHO			RSHO			LICST			RICST			LASIS			LHEEL			RASIS			LTROC			RTROC			SACR			LTH1			LSK4			LTH2			LTH3			RHM5			LSK2			LTH4			RTH1			LTOE			RTH2			RTH3			RTH4			LLEP			RLEP			LSK1			LSK3			RSK1			LHM5			RSK2			LFT1			RSK3			RSK4			LLME			RLME			RTOE			RHEEL			RFT1			RFT2			LFT2			
		X1	Y1	Z1	X2	Y2	Z2	X3	Y3	Z3	X4	Y4	Z4	X5	Y5	Z5	X6	Y6	Z6	X7	Y7	Z7	X8	Y8	Z8	X9	Y9	Z9	X10	Y10	Z10	X11	Y11	Z11	X12	Y12	Z12	X13	Y13	Z13	X14	Y14	Z14	X15	Y15	Z15	X16	Y16	Z16	X17	Y17	Z17	X18	Y18	Z18	X19	Y19	Z19	X20	Y20	Z20	X21	Y21	Z21	X22	Y22	Z22	X23	Y23	Z23	X24	Y24	Z24	X25	Y25	Z25	X26	Y26	Z26	X27	Y27	Z27	X28	Y28	Z28	X29	Y29	Z29	X30	Y30	Z30	X31	Y31	Z31	X32	Y32	Z32	X33	Y33	Z33	X34	Y34	Z34	X35	Y35	Z35	X36	Y36	Z36	X37	Y37	Z37	X38	Y38	Z38	X39	Y39	Z39	

75	0.37	-1274.777221679688	1477.938720703125	-513.993408203125	-1156.571533203125	1463.560668945312	-256.4284362792969	-1254.66845703125	1010.421203613281	-508.8956604003906	-1209.283935546875	1015.958374023438	-241.1127014160156	-1212.605834960938	958.297607421875	-485.585205078125	-1073.36474609375	113.080192565918	-375.8124084472656	-1192.90234375	968.5919799804688	-257.4376525878906	-1330.9384765625	894.4877319335938	-530.0877685546875	-1358.817260742188	923.3003540039062	-195.5166168212891	-1372.851928710938	1019.848205566406	-370.12890625	-1165.633911132812	691.6914672851562	-527.35595703125	-1118.580078125	327.78466796875	-463.5553894042969	-1229.349731445312	659.8910522460938	-494.1954040527344	-1108.139770507812	615.0181884765625	-499.2538452148438	-1880.651245117188	265.8109436035156	-192.2613067626953	-1137.984619140625	424.2769470214844	-481.9073486328125	-1176.944702148438	580.185302734375	-474.9355163574219	-1336.815673828125	679.1907348632812	-201.4725952148438	-830.5531005859375	196.9988098144531	-423.8038940429688	-1405.086547851562	717.79248046875	-190.4009857177734	-1382.568969726562	590.8302612304688	-222.3784484863281	-1455.411254882812	631.7791748046875	-208.6054534912109	-1113.297607421875	527.0463256835938	-489.8955383300781	-1476.789672851562	559.7584838867188	-212.2567138671875	-1056.669067382812	439.9436340332031	-483.1145324707031	-1039.141357421875	341.0687561035156	-469.5626220703125	-1573.338012695312	478.886474609375	-208.6882171630859	-887.270263671875	143.5402221679688	-478.4136352539062	-1615.618041992188	554.1516723632812	-216.1822509765625	-1051.167114257812	93.0434341430664	-354.966796875	-1665.00048828125	433.0481567382812	-218.4716491699219	-1697.365112304688	505.0870361328125	-227.8776245117188	-1031.840698242188	157.1626892089844	-443.3102416992188	-1839.521606445312	396.2186889648438	-239.5456237792969	-1852.497802734375	180.5737762451172	-236.4876708984375	-1862.281616210938	433.4067993164062	-305.3744506835938	-1887.763427734375	408.9777526855469	-331.2825622558594	-1894.114501953125	433.1120300292969	-281.8651428222656	-1059.369873046875	80.8211898803711	-407.7210388183594
76	0.375	-1253.782592773438	1475.928344726562	-515.89404296875	-1135.499145507812	1462.104248046875	-257.6078186035156	-1235.511840820312	1008.793823242188	-508.4022521972656	-1188.29833984375	1015.398986816406	-241.1006469726562	-1191.831176757812	956.8699340820312	-485.54345703125	-1048.892578125	109.6073989868164	-376.6230773925781	-1171.693969726562	967.7780151367188	-257.5380859375	-1310.634033203125	891.696044921875	-529.4857788085938	-1336.52392578125	921.749755859375	-194.1694641113281	-1352.569091796875	1018.197387695312	-370.1131896972656	-1149.620239257812	686.8294677734375	-528.9908447265625	-1098.408203125	323.8290405273438	-462.6499938964844	-1212.727783203125	656.1766967773438	-493.3528442382812	-1092.518676757812	609.553955078125	-500.617919921875	-1863.470336914062	275.4371337890625	-193.6955413818359	-1119.013061523438	420.0279541015625	-480.9125366210938	-1161.4150390625	576.0089721679688	-474.2846069335938	-1312.288330078125	676.7808227539062	-201.6014099121094	-808.1087036132812	197.6775665283203	-426.1756896972656	-1381.268798828125	714.7954711914062	-189.7026062011719	-1357.078002929688	588.8268432617188	-221.4130706787109	-1431.541015625	628.4015502929688	-208.5160980224609	-1096.376220703125	523.1680908203125	-488.9648742675781	-1451.66064453125	556.4002075195312	-211.8887786865234	-1038.107543945312	436.8815002441406	-483.1504211425781	-1018.930236816406	338.5093688964844	-470.0028076171875	-1550.131103515625	478.0707702636719	-208.6370391845703	-864.0309448242188	143.0478820800781	-479.9426574707031	-1590.027954101562	554.056884765625	-216.2783813476562	-1026.142333984375	90.01359558105469	-354.9693298339844	-1643.020385742188	434.97607421875	-218.7995147705078	-1673.38037109375	507.6338806152344	-228.323974609375	-1008.545532226562	154.2867279052734	-443.6358032226562	-1818.226196289062	403.7578430175781	-240.2537384033203	-1837.669311523438	189.276611328125	-237.5226745605469	-1839.974975585938	441.8524475097656	-306.7863159179688	-1866.405883789062	418.1625366210938	-332.8283081054688	-1871.709106445312	443.6850280761719	-284.5367431640625	-1034.540405273438	77.52992248535156	-407.3416137695312
77	0.38	-1232.738525390625	1473.371948242188	-517.6386108398438	-1114.500366210938	1460.505615234375	-258.9195861816406	-1214.301147460938	1007.342041015625	-508.8544006347656	-1167.615844726562	1013.829650878906	-241.2226104736328	-1171.548950195312	954.9125366210938	-485.208984375	-1026.674926757812	106.0696868896484	-375.7014770507812	-1150.461059570312	966.4138793945312	-257.7620239257812	-1291.390991210938	889.8126831054688	-530.1383666992188	-1314.0419921875	919.2008666992188	-192.9830780029297	-1331.4560546875	1015.844177246094	-370.1156616210938	-1133.409301757812	682.5780639648438	-530.3892211914062	-1078.695556640625	320.452880859375	-462.4348449707031	-1196.567993164062	652.4717407226562	-493.751953125	-1076.390502929688	604.8046264648438	-501.1456298828125	-1845.939331054688	283.8040161132812	-195.4264221191406	-1100.428344726562	416.1287841796875	-480.15380859375	-1145.415405273438	572.3386840820312	-473.3988037109375	-1288.192016601562	674.5120239257812	-201.7503204345703	-786.9089965820312	197.2236022949219	-428.1349792480469	-1357.385009765625	711.2101440429688	-189.5276184082031	-1332.47705078125	585.6171875	-221.9489593505859	-1407.433837890625	624.8936157226562	-208.4045104980469	-1079.091796875	519.8150634765625	-488.6417846679688	-1426.2646484375	552.3865966796875	-211.3253479003906	-1020.084899902344	433.7135314941406	-483.5206909179688	-999.634765625	335.6197814941406	-470.2478332519531	-1525.911865234375	477.1156921386719	-208.5033721923828	-842.5064086914062	142.0993194580078	-481.4132995605469	-1564.248413085938	553.9383544921875	-215.9434661865234	-1003.260070800781	86.74171447753906	-354.4699401855469	-1620.930419921875	435.8501586914062	-219.967529296875	-1649.1689453125	509.6625366210938	-228.4373474121094	-986.9771118164062	151.3221588134766	-443.6211547851562	-1795.148315429688	411.1523132324219	-240.7780914306641	-1822.5361328125	197.2709045410156	-239.0168762207031	-1815.6513671875	449.3985290527344	-307.2265625	-1843.802124023438	427.0496826171875	-333.6108093261719	-1847.90625	452.0005493164062	-285.6025085449219	-1011.646301269531	74.00408935546875	-407.2801818847656
78	0.385	-1211.686645507812	1470.33056640625	-519.4743041992188	-1093.627319335938	1458.86669921875	-260.3327941894531	-1194.380126953125	1005.101196289062	-508.9493408203125	-1146.740844726562	1012.244384765625	-241.6882629394531	-1150.340087890625	953.0626831054688	-485.1343383789062	-1005.028503417969	103.2478485107422	-374.3157043457031	-1129.4697265625	965.1990356445312	-257.8655090332031	-1269.982543945312	885.984375	-528.5679321289062	-1292.28662109375	916.4976196289062	-192.2615203857422	-1311.381469726562	1013.74365234375	-370.572509765625	-1116.956787109375	677.9998168945312	-531.4522094726562	-1059.899658203125	316.4882507324219	-461.4341125488281	-1179.545043945312	649.2267456054688	-492.3390502929688	-1059.618774414062	600.718017578125	-501.3008728027344	-1826.963989257812	292.3660583496094	-196.8404388427734	-1082.1044921875	412.3807678222656	-479.5444946289062	-1128.4912109375	568.7876586914062	-472.7371520996094	-1264.037841796875	671.3673095703125	-202.5151672363281	-767.6104125976562	195.8115997314453	-430.0303039550781	-1333.205444335938	707.15087890625	-188.9080657958984	-1307.551391601562	581.8251342773438	-222.1607666015625	-1382.009521484375	620.2886962890625	-207.7084350585938	-1061.769287109375	517.1834106445312	-488.3398132324219	-1400.652954101562	548.1258544921875	-211.6883087158203	-1001.572998046875	430.0723876953125	-483.7397766113281	-980.7490844726562	331.7534484863281	-470.708740234375	-1502.46240234375	474.5963439941406	-208.6009521484375	-823.4068603515625	139.8460540771484	-482.6249389648438	-1538.05810546875	552.6360473632812	-215.5426635742188	-981.5213623046876	83.35442352294922	-353.7682189941406	-1598.444458007812	436.4919738769531	-220.9962005615234	-1624.404418945312	511.2582702636719	-228.1436004638672	-967.556884765625	148.4632263183594	-443.4677124023438	-1772.025512695312	418.4006958007812	-241.0629272460938	-1806.58544921875	204.4253845214844	-241.2722015380859	-1792.74267578125	456.8652648925781	-308.9398193359375	-1821.579467773438	436.0597534179688	-335.13525390625	-1823.57763671875	459.9643249511719	-286.3657531738281	-990.6969604492188	70.84083557128906	-406.6758728027344
